<svg xmlns="http://www.w3.org/2000/svg" xmlns:xlink="http://www.w3.org/1999/xlink" width="250" height="250" version="1.1" viewBox="0 0 250 250">
   <g transform="translate(5,5)">
      <rect y="0" x="0" height="240" width="240" style="fill:#fff0c0" />
      <path
         d="M 0,0 H 240 V 240 H 0 V 0 M 40,40 H 200 V 200 H 40 V 40 M 80,80 H 160 V 160 H 80 V 80 M 0,120 H 80 M 120,0 V 80 M 160,120 H 240 M 120,160 V 240"
         style="fill:none;stroke:#000000" />
      <g id="intersections">
         <circle id="path1000" r="4" />
         <use xlink:href="#path1000" transform="translate(120)" />
         <use xlink:href="#path1000" transform="translate(240)" />
         <use xlink:href="#path1000" transform="translate(40,40)" />
         <use xlink:href="#path1000" transform="translate(120,40)" />
         <use xlink:href="#path1000" transform="translate(200,40)" />
         <use xlink:href="#path1000" transform="translate(80,80)" />
         <use xlink:href="#path1000" transform="translate(120,80)" />
         <use xlink:href="#path1000" transform="translate(160,80)" />
         <use xlink:href="#path1000" transform="translate(0,120)" />
         <use xlink:href="#path1000" transform="translate(40,120)" />
         <use xlink:href="#path1000" transform="translate(80,120)" />
         <use xlink:href="#path1000" transform="translate(160,120)" />
         <use xlink:href="#path1000" transform="translate(200,120)" />
         <use xlink:href="#path1000" transform="translate(240,120)" />
         <use xlink:href="#path1000" transform="translate(80,160)" />
         <use xlink:href="#path1000" transform="translate(120,160)" />
         <use xlink:href="#path1000" transform="translate(160,160)" />
         <use xlink:href="#path1000" transform="translate(40,200)" />
         <use xlink:href="#path1000" transform="translate(120,200)" />
         <use xlink:href="#path1000" transform="translate(200,200)" />
         <use xlink:href="#path1000" transform="translate(0,240)" />
         <use xlink:href="#path1000" transform="translate(120,240)" />
         <use xlink:href="#path1000" transform="translate(240,240)" />
      </g>
   </g>
</svg>