<svg xmlns="http://www.w3.org/2000/svg" width="240" height="240" version="1.1" viewBox="0 0 250 250">
   <style>
      circle {
      r: 5;
      }
   </style>
   <rect y="5" x="5" height="240" width="240" style="fill:#fff0c0" />
   <path
      d="M 5,5 H 245 V 245 H 5 V 5 M 45,45 H 205 V 205 H 45 V 45 M 85,85 H 165 V 165 H 85 V 85 M 5,125 H 85 M 125,5 V 85 M 165,125 H 245 M 125,165 V 245"
      style="fill:none;stroke:#000000" />
   <circle cx="5" cy="5" />
   <circle cx="125" cy="5" />
   <circle cx="245" cy="5" />
   <circle cx="45" cy="45" />
   <circle cx="125" cy="45" />
   <circle cx="205" cy="45" />
   <circle cx="85" cy="85" />
   <circle cx="125" cy="85" />
   <circle cx="165" cy="85" />
   <circle cx="5" cy="125" />
   <circle cx="45" cy="125" />
   <circle cx="85" cy="125" />
   <circle cx="165" cy="125" />
   <circle cx="205" cy="125" />
   <circle cx="245" cy="125" />
   <circle cx="85" cy="165" />
   <circle cx="125" cy="165" />
   <circle cx="165" cy="165" />
   <circle cx="45" cy="205" />
   <circle cx="125" cy="205" />
   <circle cx="205" cy="205" />
   <circle cx="5" cy="245" />
   <circle cx="125" cy="245" />
   <circle cx="245" cy="245" />
</svg>